<mxfile host="app.diagrams.net" modified="2021-05-31T02:59:19.371Z" agent="5.0 (Macintosh; Intel Mac OS X 10_15_7) AppleWebKit/537.36 (KHTML, like Gecko) Chrome/91.0.4472.77 Safari/537.36" etag="A1bMZWIy7I2ejlmhjOF0" version="14.7.3" type="github">
  <diagram id="Ua9Ezlw8lN_SYHWKglm6" name="第 1 页">
    <mxGraphModel dx="1126" dy="714" grid="1" gridSize="10" guides="1" tooltips="1" connect="1" arrows="1" fold="1" page="1" pageScale="1" pageWidth="827" pageHeight="1169" math="0" shadow="0">
      <root>
        <mxCell id="0" />
        <mxCell id="1" parent="0" />
        <mxCell id="3OkUab6tCFNkmtSCS4Bt-18" value="" style="rounded=0;whiteSpace=wrap;html=1;fillColor=#b0e3e6;strokeColor=#0e8088;dashed=1;" parent="1" vertex="1">
          <mxGeometry x="110" y="578.5" width="580" height="131.5" as="geometry" />
        </mxCell>
        <mxCell id="3OkUab6tCFNkmtSCS4Bt-39" value="" style="rounded=0;whiteSpace=wrap;html=1;dashed=1;fillColor=#d5e8d4;strokeColor=#82b366;" parent="1" vertex="1">
          <mxGeometry x="110" y="290" width="140" height="270" as="geometry" />
        </mxCell>
        <mxCell id="3OkUab6tCFNkmtSCS4Bt-20" value="" style="rounded=0;whiteSpace=wrap;html=1;dashed=1;fillColor=#ffe6cc;strokeColor=#d79b00;" parent="1" vertex="1">
          <mxGeometry x="550" y="290" width="140" height="270" as="geometry" />
        </mxCell>
        <mxCell id="3OkUab6tCFNkmtSCS4Bt-4" value="RocketMQ" style="rounded=0;whiteSpace=wrap;html=1;" parent="1" vertex="1">
          <mxGeometry x="560" y="415" width="120" height="60" as="geometry" />
        </mxCell>
        <mxCell id="3OkUab6tCFNkmtSCS4Bt-5" value="ElasticSearch" style="rounded=0;whiteSpace=wrap;html=1;" parent="1" vertex="1">
          <mxGeometry x="560" y="490" width="120" height="60" as="geometry" />
        </mxCell>
        <mxCell id="3OkUab6tCFNkmtSCS4Bt-7" value="" style="rounded=0;whiteSpace=wrap;html=1;fillColor=#dae8fc;" parent="1" vertex="1">
          <mxGeometry x="110" y="200" width="580" height="70" as="geometry" />
        </mxCell>
        <mxCell id="3OkUab6tCFNkmtSCS4Bt-9" value="MySql" style="shape=cylinder3;whiteSpace=wrap;html=1;boundedLbl=1;backgroundOutline=1;size=15;" parent="1" vertex="1">
          <mxGeometry x="120" y="610" width="60" height="80" as="geometry" />
        </mxCell>
        <mxCell id="3OkUab6tCFNkmtSCS4Bt-10" value="Redis" style="shape=cylinder3;whiteSpace=wrap;html=1;boundedLbl=1;backgroundOutline=1;size=15;" parent="1" vertex="1">
          <mxGeometry x="444" y="610" width="60" height="80" as="geometry" />
        </mxCell>
        <mxCell id="3OkUab6tCFNkmtSCS4Bt-12" value="..." style="shape=cylinder3;whiteSpace=wrap;html=1;boundedLbl=1;backgroundOutline=1;size=15;" parent="1" vertex="1">
          <mxGeometry x="200" y="610" width="60" height="80" as="geometry" />
        </mxCell>
        <mxCell id="3OkUab6tCFNkmtSCS4Bt-13" value="..." style="shape=cylinder3;whiteSpace=wrap;html=1;boundedLbl=1;backgroundOutline=1;size=15;" parent="1" vertex="1">
          <mxGeometry x="600" y="610" width="60" height="80" as="geometry" />
        </mxCell>
        <mxCell id="3OkUab6tCFNkmtSCS4Bt-15" value="..." style="shape=cylinder3;whiteSpace=wrap;html=1;boundedLbl=1;backgroundOutline=1;size=15;" parent="1" vertex="1">
          <mxGeometry x="284" y="610" width="60" height="80" as="geometry" />
        </mxCell>
        <mxCell id="3OkUab6tCFNkmtSCS4Bt-16" value="..." style="shape=cylinder3;whiteSpace=wrap;html=1;boundedLbl=1;backgroundOutline=1;size=15;" parent="1" vertex="1">
          <mxGeometry x="520" y="610" width="60" height="80" as="geometry" />
        </mxCell>
        <mxCell id="3OkUab6tCFNkmtSCS4Bt-23" value="" style="rounded=0;whiteSpace=wrap;html=1;fillColor=#f9f7ed;strokeColor=#36393d;" parent="1" vertex="1">
          <mxGeometry x="110" y="120" width="580" height="70" as="geometry" />
        </mxCell>
        <mxCell id="3OkUab6tCFNkmtSCS4Bt-34" value="中间件" style="text;html=1;align=center;verticalAlign=middle;resizable=0;points=[];autosize=1;strokeColor=none;" parent="1" vertex="1">
          <mxGeometry x="595" y="300" width="50" height="20" as="geometry" />
        </mxCell>
        <mxCell id="3OkUab6tCFNkmtSCS4Bt-21" value="" style="rounded=0;whiteSpace=wrap;html=1;dashed=1;fillColor=#fff2cc;strokeColor=#d6b656;" parent="1" vertex="1">
          <mxGeometry x="260" y="290" width="280" height="190" as="geometry" />
        </mxCell>
        <mxCell id="3OkUab6tCFNkmtSCS4Bt-24" value="服务1" style="rounded=0;whiteSpace=wrap;html=1;" parent="1" vertex="1">
          <mxGeometry x="270" y="335" width="120" height="60" as="geometry" />
        </mxCell>
        <mxCell id="3OkUab6tCFNkmtSCS4Bt-25" value="服务2" style="rounded=0;whiteSpace=wrap;html=1;" parent="1" vertex="1">
          <mxGeometry x="404" y="335" width="120" height="60" as="geometry" />
        </mxCell>
        <mxCell id="3OkUab6tCFNkmtSCS4Bt-26" value="服务4" style="rounded=0;whiteSpace=wrap;html=1;" parent="1" vertex="1">
          <mxGeometry x="404" y="410" width="120" height="60" as="geometry" />
        </mxCell>
        <mxCell id="3OkUab6tCFNkmtSCS4Bt-27" value="服务2" style="rounded=0;whiteSpace=wrap;html=1;" parent="1" vertex="1">
          <mxGeometry x="270" y="410" width="120" height="60" as="geometry" />
        </mxCell>
        <mxCell id="3OkUab6tCFNkmtSCS4Bt-31" value="业务集群" style="text;html=1;align=center;verticalAlign=middle;resizable=0;points=[];autosize=1;strokeColor=none;" parent="1" vertex="1">
          <mxGeometry x="370" y="300" width="60" height="20" as="geometry" />
        </mxCell>
        <mxCell id="3OkUab6tCFNkmtSCS4Bt-37" value="Histrix" style="rounded=0;whiteSpace=wrap;html=1;" parent="1" vertex="1">
          <mxGeometry x="120" y="490" width="120" height="60" as="geometry" />
        </mxCell>
        <mxCell id="3OkUab6tCFNkmtSCS4Bt-38" value="Ribbon" style="rounded=0;whiteSpace=wrap;html=1;" parent="1" vertex="1">
          <mxGeometry x="120" y="410" width="120" height="60" as="geometry" />
        </mxCell>
        <mxCell id="3OkUab6tCFNkmtSCS4Bt-40" value="核心组件" style="text;html=1;align=center;verticalAlign=middle;resizable=0;points=[];autosize=1;strokeColor=none;" parent="1" vertex="1">
          <mxGeometry x="150" y="300" width="60" height="20" as="geometry" />
        </mxCell>
        <mxCell id="3OkUab6tCFNkmtSCS4Bt-41" value="Eureka" style="rounded=0;whiteSpace=wrap;html=1;" parent="1" vertex="1">
          <mxGeometry x="120" y="335" width="120" height="60" as="geometry" />
        </mxCell>
        <mxCell id="3OkUab6tCFNkmtSCS4Bt-44" value="Seata" style="rounded=0;whiteSpace=wrap;html=1;" parent="1" vertex="1">
          <mxGeometry x="560" y="340" width="120" height="60" as="geometry" />
        </mxCell>
        <mxCell id="3OkUab6tCFNkmtSCS4Bt-46" value="XXL-JOB" style="rounded=0;whiteSpace=wrap;html=1;dashed=1;fillColor=#fad7ac;strokeColor=#b46504;" parent="1" vertex="1">
          <mxGeometry x="260" y="500" width="130" height="60" as="geometry" />
        </mxCell>
        <mxCell id="3OkUab6tCFNkmtSCS4Bt-47" value="Spring Boot Admin" style="rounded=0;whiteSpace=wrap;html=1;dashed=1;fillColor=#fad7ac;strokeColor=#b46504;" parent="1" vertex="1">
          <mxGeometry x="410" y="500" width="130" height="60" as="geometry" />
        </mxCell>
        <mxCell id="3OkUab6tCFNkmtSCS4Bt-48" value="数据层" style="text;html=1;align=center;verticalAlign=middle;resizable=0;points=[];autosize=1;strokeColor=none;" parent="1" vertex="1">
          <mxGeometry x="364" y="590" width="50" height="20" as="geometry" />
        </mxCell>
        <mxCell id="3OkUab6tCFNkmtSCS4Bt-51" value="Restful API" style="rounded=1;whiteSpace=wrap;html=1;dashed=1;" parent="1" vertex="1">
          <mxGeometry x="364" y="150" width="120" height="35" as="geometry" />
        </mxCell>
        <mxCell id="3OkUab6tCFNkmtSCS4Bt-52" value="PC、H5 （Vue、Element UI）" style="rounded=1;whiteSpace=wrap;html=1;dashed=1;" parent="1" vertex="1">
          <mxGeometry x="120" y="150" width="210" height="35" as="geometry" />
        </mxCell>
        <mxCell id="3OkUab6tCFNkmtSCS4Bt-53" value="地址路由" style="rounded=1;whiteSpace=wrap;html=1;dashed=1;" parent="1" vertex="1">
          <mxGeometry x="120" y="230" width="120" height="35" as="geometry" />
        </mxCell>
        <mxCell id="3OkUab6tCFNkmtSCS4Bt-54" value="&lt;span&gt;网关(Spring Cloud Gateway)&lt;/span&gt;" style="text;html=1;align=center;verticalAlign=middle;resizable=0;points=[];autosize=1;strokeColor=none;" parent="1" vertex="1">
          <mxGeometry x="304" y="205" width="170" height="20" as="geometry" />
        </mxCell>
        <mxCell id="3OkUab6tCFNkmtSCS4Bt-55" value="请求过滤" style="rounded=1;whiteSpace=wrap;html=1;dashed=1;" parent="1" vertex="1">
          <mxGeometry x="260" y="230" width="120" height="35" as="geometry" />
        </mxCell>
        <mxCell id="3OkUab6tCFNkmtSCS4Bt-56" value="API鉴权" style="rounded=1;whiteSpace=wrap;html=1;dashed=1;" parent="1" vertex="1">
          <mxGeometry x="404" y="230" width="120" height="35" as="geometry" />
        </mxCell>
        <mxCell id="3OkUab6tCFNkmtSCS4Bt-57" value="限流/负载均衡" style="rounded=1;whiteSpace=wrap;html=1;dashed=1;" parent="1" vertex="1">
          <mxGeometry x="550" y="230" width="120" height="35" as="geometry" />
        </mxCell>
        <mxCell id="3OkUab6tCFNkmtSCS4Bt-58" value="展示层/开放API" style="text;html=1;align=center;verticalAlign=middle;resizable=0;points=[];autosize=1;strokeColor=none;" parent="1" vertex="1">
          <mxGeometry x="350" y="123" width="100" height="20" as="geometry" />
        </mxCell>
        <mxCell id="3OkUab6tCFNkmtSCS4Bt-61" value="zipkin、sleuth" style="text;html=1;align=center;verticalAlign=middle;resizable=0;points=[];autosize=1;strokeColor=none;" parent="1" vertex="1">
          <mxGeometry x="700" y="770" width="90" height="20" as="geometry" />
        </mxCell>
        <mxCell id="lwGA5uG_przvCAxksVhe-1" value="" style="rounded=0;whiteSpace=wrap;html=1;fillColor=#b0e3e6;strokeColor=#0e8088;dashed=1;" parent="1" vertex="1">
          <mxGeometry x="110" y="1308.5" width="580" height="131.5" as="geometry" />
        </mxCell>
        <mxCell id="lwGA5uG_przvCAxksVhe-2" value="" style="rounded=0;whiteSpace=wrap;html=1;dashed=1;fillColor=#d5e8d4;strokeColor=#82b366;" parent="1" vertex="1">
          <mxGeometry x="110" y="1020" width="140" height="270" as="geometry" />
        </mxCell>
        <mxCell id="lwGA5uG_przvCAxksVhe-3" value="" style="rounded=0;whiteSpace=wrap;html=1;dashed=1;fillColor=#ffe6cc;strokeColor=#d79b00;" parent="1" vertex="1">
          <mxGeometry x="550" y="1020" width="140" height="270" as="geometry" />
        </mxCell>
        <mxCell id="lwGA5uG_przvCAxksVhe-5" value="ElasticSearch" style="rounded=0;whiteSpace=wrap;html=1;" parent="1" vertex="1">
          <mxGeometry x="560" y="1220" width="120" height="60" as="geometry" />
        </mxCell>
        <mxCell id="lwGA5uG_przvCAxksVhe-6" value="" style="rounded=0;whiteSpace=wrap;html=1;fillColor=#dae8fc;" parent="1" vertex="1">
          <mxGeometry x="110" y="930" width="580" height="70" as="geometry" />
        </mxCell>
        <mxCell id="lwGA5uG_przvCAxksVhe-7" value="MySql" style="shape=cylinder3;whiteSpace=wrap;html=1;boundedLbl=1;backgroundOutline=1;size=15;" parent="1" vertex="1">
          <mxGeometry x="120" y="1340" width="60" height="80" as="geometry" />
        </mxCell>
        <mxCell id="lwGA5uG_przvCAxksVhe-8" value="Redis" style="shape=cylinder3;whiteSpace=wrap;html=1;boundedLbl=1;backgroundOutline=1;size=15;" parent="1" vertex="1">
          <mxGeometry x="444" y="1340" width="60" height="80" as="geometry" />
        </mxCell>
        <mxCell id="lwGA5uG_przvCAxksVhe-9" value="..." style="shape=cylinder3;whiteSpace=wrap;html=1;boundedLbl=1;backgroundOutline=1;size=15;" parent="1" vertex="1">
          <mxGeometry x="200" y="1340" width="60" height="80" as="geometry" />
        </mxCell>
        <mxCell id="lwGA5uG_przvCAxksVhe-10" value="..." style="shape=cylinder3;whiteSpace=wrap;html=1;boundedLbl=1;backgroundOutline=1;size=15;" parent="1" vertex="1">
          <mxGeometry x="600" y="1340" width="60" height="80" as="geometry" />
        </mxCell>
        <mxCell id="lwGA5uG_przvCAxksVhe-11" value="..." style="shape=cylinder3;whiteSpace=wrap;html=1;boundedLbl=1;backgroundOutline=1;size=15;" parent="1" vertex="1">
          <mxGeometry x="284" y="1340" width="60" height="80" as="geometry" />
        </mxCell>
        <mxCell id="lwGA5uG_przvCAxksVhe-12" value="..." style="shape=cylinder3;whiteSpace=wrap;html=1;boundedLbl=1;backgroundOutline=1;size=15;" parent="1" vertex="1">
          <mxGeometry x="520" y="1340" width="60" height="80" as="geometry" />
        </mxCell>
        <mxCell id="lwGA5uG_przvCAxksVhe-13" value="" style="rounded=0;whiteSpace=wrap;html=1;fillColor=#f9f7ed;strokeColor=#36393d;" parent="1" vertex="1">
          <mxGeometry x="110" y="850" width="580" height="70" as="geometry" />
        </mxCell>
        <mxCell id="lwGA5uG_przvCAxksVhe-14" value="中间件" style="text;html=1;align=center;verticalAlign=middle;resizable=0;points=[];autosize=1;strokeColor=none;" parent="1" vertex="1">
          <mxGeometry x="595" y="1030" width="50" height="20" as="geometry" />
        </mxCell>
        <mxCell id="lwGA5uG_przvCAxksVhe-15" value="" style="rounded=0;whiteSpace=wrap;html=1;dashed=1;fillColor=#fff2cc;strokeColor=#d6b656;" parent="1" vertex="1">
          <mxGeometry x="260" y="1020" width="280" height="190" as="geometry" />
        </mxCell>
        <mxCell id="lwGA5uG_przvCAxksVhe-16" value="服务1" style="rounded=0;whiteSpace=wrap;html=1;" parent="1" vertex="1">
          <mxGeometry x="270" y="1065" width="120" height="60" as="geometry" />
        </mxCell>
        <mxCell id="lwGA5uG_przvCAxksVhe-17" value="服务2" style="rounded=0;whiteSpace=wrap;html=1;" parent="1" vertex="1">
          <mxGeometry x="404" y="1065" width="120" height="60" as="geometry" />
        </mxCell>
        <mxCell id="lwGA5uG_przvCAxksVhe-18" value="服务4" style="rounded=0;whiteSpace=wrap;html=1;" parent="1" vertex="1">
          <mxGeometry x="404" y="1140" width="120" height="60" as="geometry" />
        </mxCell>
        <mxCell id="lwGA5uG_przvCAxksVhe-19" value="服务2" style="rounded=0;whiteSpace=wrap;html=1;" parent="1" vertex="1">
          <mxGeometry x="270" y="1140" width="120" height="60" as="geometry" />
        </mxCell>
        <mxCell id="lwGA5uG_przvCAxksVhe-20" value="业务集群" style="text;html=1;align=center;verticalAlign=middle;resizable=0;points=[];autosize=1;strokeColor=none;" parent="1" vertex="1">
          <mxGeometry x="370" y="1030" width="60" height="20" as="geometry" />
        </mxCell>
        <mxCell id="lwGA5uG_przvCAxksVhe-21" value="Histrix" style="rounded=0;whiteSpace=wrap;html=1;" parent="1" vertex="1">
          <mxGeometry x="120" y="1220" width="120" height="60" as="geometry" />
        </mxCell>
        <mxCell id="lwGA5uG_przvCAxksVhe-22" value="Ribbon" style="rounded=0;whiteSpace=wrap;html=1;" parent="1" vertex="1">
          <mxGeometry x="120" y="1140" width="120" height="60" as="geometry" />
        </mxCell>
        <mxCell id="lwGA5uG_przvCAxksVhe-23" value="核心组件" style="text;html=1;align=center;verticalAlign=middle;resizable=0;points=[];autosize=1;strokeColor=none;" parent="1" vertex="1">
          <mxGeometry x="150" y="1030" width="60" height="20" as="geometry" />
        </mxCell>
        <mxCell id="lwGA5uG_przvCAxksVhe-24" value="Eureka" style="rounded=0;whiteSpace=wrap;html=1;" parent="1" vertex="1">
          <mxGeometry x="120" y="1065" width="120" height="60" as="geometry" />
        </mxCell>
        <mxCell id="lwGA5uG_przvCAxksVhe-28" value="数据层" style="text;html=1;align=center;verticalAlign=middle;resizable=0;points=[];autosize=1;strokeColor=none;" parent="1" vertex="1">
          <mxGeometry x="364" y="1320" width="50" height="20" as="geometry" />
        </mxCell>
        <mxCell id="lwGA5uG_przvCAxksVhe-29" value="Restful API" style="rounded=1;whiteSpace=wrap;html=1;dashed=1;" parent="1" vertex="1">
          <mxGeometry x="364" y="880" width="120" height="35" as="geometry" />
        </mxCell>
        <mxCell id="lwGA5uG_przvCAxksVhe-30" value="PC、H5 （Vue、Element UI）" style="rounded=1;whiteSpace=wrap;html=1;dashed=1;" parent="1" vertex="1">
          <mxGeometry x="120" y="880" width="210" height="35" as="geometry" />
        </mxCell>
        <mxCell id="lwGA5uG_przvCAxksVhe-31" value="地址路由" style="rounded=1;whiteSpace=wrap;html=1;dashed=1;" parent="1" vertex="1">
          <mxGeometry x="120" y="960" width="120" height="35" as="geometry" />
        </mxCell>
        <mxCell id="lwGA5uG_przvCAxksVhe-32" value="&lt;span&gt;网关(Spring Cloud Gateway)&lt;/span&gt;" style="text;html=1;align=center;verticalAlign=middle;resizable=0;points=[];autosize=1;strokeColor=none;" parent="1" vertex="1">
          <mxGeometry x="304" y="935" width="170" height="20" as="geometry" />
        </mxCell>
        <mxCell id="lwGA5uG_przvCAxksVhe-33" value="请求过滤" style="rounded=1;whiteSpace=wrap;html=1;dashed=1;" parent="1" vertex="1">
          <mxGeometry x="260" y="960" width="120" height="35" as="geometry" />
        </mxCell>
        <mxCell id="lwGA5uG_przvCAxksVhe-34" value="API鉴权" style="rounded=1;whiteSpace=wrap;html=1;dashed=1;" parent="1" vertex="1">
          <mxGeometry x="404" y="960" width="120" height="35" as="geometry" />
        </mxCell>
        <mxCell id="lwGA5uG_przvCAxksVhe-35" value="限流/负载均衡" style="rounded=1;whiteSpace=wrap;html=1;dashed=1;" parent="1" vertex="1">
          <mxGeometry x="550" y="960" width="120" height="35" as="geometry" />
        </mxCell>
        <mxCell id="lwGA5uG_przvCAxksVhe-36" value="展示层/开放API" style="text;html=1;align=center;verticalAlign=middle;resizable=0;points=[];autosize=1;strokeColor=none;" parent="1" vertex="1">
          <mxGeometry x="350" y="853" width="100" height="20" as="geometry" />
        </mxCell>
        <mxCell id="lwGA5uG_przvCAxksVhe-37" value="Spring Cloud" style="rounded=0;whiteSpace=wrap;html=1;" parent="1" vertex="1">
          <mxGeometry x="270" y="1220" width="120" height="60" as="geometry" />
        </mxCell>
        <mxCell id="lwGA5uG_przvCAxksVhe-38" value="Feign" style="rounded=0;whiteSpace=wrap;html=1;" parent="1" vertex="1">
          <mxGeometry x="410" y="1220" width="120" height="60" as="geometry" />
        </mxCell>
      </root>
    </mxGraphModel>
  </diagram>
</mxfile>
